<svg version="1.2" xmlns="http://www.w3.org/2000/svg" viewBox="0 0 1134 303" width="220" height="60">
	<title>Logotipo_Inhole_editable-ai</title>
	<style>
		.s0 { fill: #c51e43 } 
		.s1 { fill: #d1d2d3 } 
		.s2 { fill: #6c6e70 } 
	</style>
	<g id="Capa 1">
		<g id="&lt;Group&gt;">
			<g id="&lt;Group&gt;">
				<g id="&lt;Group&gt;">
					<g id="&lt;Group&gt;">
						<path id="&lt;Compound Path&gt;" fill-rule="evenodd" class="s0" d="m290.4 153.1c3.1 50.9-33.4 101.3-79.8 119.8-47 18.8-101.9 9-138.9-25.7-38-35.7-50.3-91.9-31.8-140.4 18.3-47.9 64.5-80.4 115.6-82.9 59.3-2.7 115.3 37.2 130.4 94.7 3 11.3 5.1 22.7 4.5 34.5zm-129.6-95.6c-2.6-0.2-6.2 0.3-9.9 0.6-44.9 3.6-81 41.8-85.4 85.9-3.8 38.5 17.3 77.2 52 94.7 35.8 18 80.4 11.7 109.6-15.8 28.7-27 38.1-71.6 22-107.5-15.5-35-49.7-58-88.3-57.9z"/>
					</g>
				</g>
				<g id="&lt;Group&gt;" style="opacity: .1">
					<g id="&lt;Group&gt;">
						<path id="&lt;Path&gt;" class="s1" d="m275.3 97.4c-35.1-57.1-104.6-70.5-155.4-45.3-50.9 25.3-77.1 82.5-62.5 137.6 8 30.4 25.7 54.1 52.3 70.8 26.6 16.6 55.5 21.3 86.9 15.7-10.7 5-38.6 8.6-61.3 4-20.4-4.1-39-12.2-55.5-25-44.2-34.3-61.2-92.6-42.4-145.8 18.4-52.4 69-87.1 125.9-85.5 55.2 1.5 96.1 37.2 112 73.5z"/>
					</g>
					<g id="&lt;Group&gt;">
						<path id="&lt;Path&gt;" class="s1" d="m206.3 55.4c51.8 22.5 71.4 78.9 56.4 124.3-15 45.5-59.6 74.2-107.4 68.7-26.3-3.1-48.2-15-65.3-35.2-17-20.2-24.4-43.8-23.5-70.7-2.9 9.6-2.6 33.3 3.9 51.7 5.9 16.6 14.9 31.1 27.6 43.3 33.9 32.8 84.6 40 126.8 18 41.5-21.7 64.4-68.1 56.3-115.4-7.9-45.8-42.6-75.8-74.8-84.7z"/>
					</g>
				</g>
			</g>
			<g id="&lt;Group&gt;">
				<g id="&lt;Group&gt;">
					<path id="&lt;Compound Path&gt;" class="s0" d="m99.9 205.8q-0.5-0.6-0.5-1.3v-99.1q0-0.8 0.5-1.3 0.6-0.5 1.3-0.5h20.8q0.7 0 1.3 0.5 0.5 0.5 0.5 1.3v99.1q0 0.7-0.5 1.3-0.6 0.5-1.3 0.5h-20.8q-0.7 0-1.3-0.5z"/>
					<path id="&lt;Compound Path&gt;" class="s0" d="m197 104.1q0.5-0.5 1.3-0.5h20.8q0.7 0 1.3 0.5 0.5 0.5 0.5 1.3v99.1q0 0.7-0.5 1.3-0.6 0.5-1.3 0.5h-19.9q-1.5 0-2.1-1.2l-33.7-56q-0.3-0.5-0.6-0.4-0.3 0.1-0.3 0.7l0.1 55.1q0 0.7-0.5 1.3-0.5 0.5-1.2 0.5h-20.8q-0.8 0-1.3-0.5-0.5-0.6-0.5-1.3v-99.1q0-0.8 0.5-1.3 0.5-0.5 1.3-0.5h20q1.5 0 2.1 1.2l33.6 55.9q0.3 0.4 0.6 0.3 0.3-0.1 0.3-0.6l-0.2-55q0-0.8 0.5-1.3z"/>
				</g>
			</g>
			<g id="&lt;Group&gt;">
				<path id="&lt;Compound Path&gt;" class="s2" d="m326.5 123.5q0-1 0.8-1.6 0.7-0.5 1.9-0.5h7.2q2.8 0 2.7 2.1v24.3q0 1.9 1 3 1 1.1 2.5 1.1h19.9q1.5 0 2.5-1.1 1-1.1 1-3v-24.3q0-2.1 2.8-2.1h7q2.8 0 2.8 2.1v63.9q0 2.2-2.8 2.2h-7.6q-2.2 0-2.2-1.6v-27.8q0-1.8-1-3-1-1.2-2.5-1.2h-19.9q-1.5 0-2.5 1.2-1 1.2-1 3v27.2q0.1 2.2-2.7 2.2h-7.2q-2.7 0-2.7-2.2z"/>
				<path id="&lt;Compound Path&gt;" fill-rule="evenodd" class="s2" d="m424 190.4q-6.9 0-12.8-2.6-5.9-2.5-10.2-7.2-4.3-4.7-6.6-11.1-2.4-6.4-2.4-14.1 0-7.7 2.4-14.1 2.3-6.3 6.6-11 4.3-4.6 10.2-7.2 5.9-2.5 12.8-2.5 6.8 0 12.7 2.5 5.9 2.6 10.1 7.2 4.3 4.7 6.7 11 2.5 6.4 2.5 14.1 0 7.7-2.5 14.1-2.4 6.4-6.7 11.1-4.2 4.7-10.1 7.2-5.9 2.6-12.7 2.6zm0-65.8q-3.8 0-7.2 2.1-3.4 2.1-6 6-2.5 3.9-4 9.6-1.6 5.7-1.6 13 0 7.2 1.6 13 1.5 5.8 4 9.7 2.6 4 6 6.1 3.4 2.1 7.2 2.1 3.8 0 7.2-2.1 3.3-2.1 5.8-6.1 2.5-3.9 4-9.7 1.5-5.8 1.5-13 0-7.3-1.5-13-1.5-5.7-4-9.6-2.5-3.9-5.8-6-3.4-2.1-7.2-2.1z"/>
				<path id="&lt;Compound Path&gt;" class="s2" d="m469.3 122.9q0-0.7 0.6-1.1 0.7-0.4 1.5-0.4h8.3q2 0 2.2 1.5v57.4q0 2.4 1.2 3.8 1.3 1.4 3.5 1.4h23.5q0.9 0.1 1.5 0.5 0.7 0.5 0.7 1.1v0.9q0 1.6-2.2 1.6h-38.7q-2.1 0-2.1-1.6z"/>
				<path id="&lt;Compound Path&gt;" class="s2" d="m522.7 123q0-1.6 2.2-1.6h38.2q2.2 0 2.2 1.6v0.7q0 1.7-2.2 1.7h-24.2q-1.6 0-2.6 1.2-1 1.2-0.9 3v18.2q-0.1 1.9 0.9 3 1 1.1 2.6 1.1h18.8q2.1 0 2.1 1.7v0.9q0 1.5-2.1 1.5h-18.8q-1.6 0-2.6 1.2-1 1.2-0.9 3v21.1q-0.1 1.9 0.9 3 1 1.2 2.6 1.2h25.3q2.2 0 2.2 1.6v0.9q0 1.6-2.2 1.6h-39.3q-2.2 0-2.2-1.6z"/>
				<path id="&lt;Compound Path&gt;" class="s2" d="m600.9 180.5q0.7-0.7 1.8-0.7 1.4 0 1.9 0.6 2.7 2.6 6.2 4.2 3.5 1.6 7.4 1.6 6.2 0 9.7-3.1 3.5-3.2 3.5-8.4 0-1.7-0.4-3.2-0.4-1.5-1.5-2.8-1.1-1.4-2.9-2.8-1.9-1.4-4.7-3.1l-5.2-2.9q-4.8-2.8-7.9-5.4-3-2.6-4.8-5.2-1.8-2.6-2.5-5.3-0.7-2.7-0.7-5.8 0-4.4 1.8-7.7 1.9-3.3 5-5.5 3.1-2.2 7-3.3 3.9-1.1 8.2-1.1 5.2 0 9.2 1.3 4.1 1.4 8.6 5.7 0.7 0.6 0.7 1.2 0 0.5-0.7 1.2l0.1-0.2q-0.8 1-1.5 1.6-0.7 0.6-2.3 0.6-2 0-3.3-1.6-2.8-3.5-5.2-4.6-2.5-1.2-4.6-1.2-4.9 0-8.3 3.2-3.3 3.1-3.3 7.9 0 2.4 0.5 4.2 0.5 1.7 1.7 3.2 1.2 1.4 3.1 2.9 1.9 1.4 4.8 3l4.9 2.9q4.3 2.6 7.3 4.7 3.1 2.2 5.1 4.5 1.9 2.3 2.8 4.9 0.9 2.6 0.9 6 0 4.1-2 7.5-1.9 3.5-5.1 5.9-3.2 2.4-7.4 3.7-4.2 1.3-8.8 1.3-4.1 0-7.1-0.7-3.1-0.7-5.4-1.8-2.4-1-4-2.3-1.6-1.3-2.8-2.5-0.7-0.7-0.7-1.2 0-0.6 0.7-1.2z"/>
				<path id="&lt;Compound Path&gt;" fill-rule="evenodd" class="s2" d="m684.3 190.4q-6.9 0-12.7-2.6-5.9-2.5-10.2-7.2-4.3-4.7-6.7-11.1-2.4-6.4-2.4-14.1 0-7.7 2.4-14.1 2.4-6.3 6.7-11 4.3-4.6 10.2-7.2 5.8-2.5 12.7-2.5 6.9 0 12.7 2.5 5.9 2.6 10.2 7.2 4.2 4.7 6.7 11 2.4 6.4 2.4 14.1 0 7.7-2.4 14.1-2.5 6.4-6.7 11.1-4.3 4.7-10.2 7.2-5.8 2.6-12.7 2.6zm0-65.8q-3.8 0-7.2 2.1-3.4 2.1-5.9 6-2.6 3.9-4.1 9.6-1.5 5.7-1.5 13 0 7.2 1.5 13 1.5 5.8 4.1 9.7 2.5 4 5.9 6.1 3.4 2.1 7.2 2.1 3.8 0 7.2-2.1 3.4-2.1 5.9-6.1 2.5-3.9 3.9-9.7 1.5-5.8 1.5-13 0-7.3-1.5-13-1.4-5.7-3.9-9.6-2.5-3.9-5.9-6-3.4-2.1-7.2-2.1z"/>
				<path id="&lt;Compound Path&gt;" class="s2" d="m729.6 122.9q0-0.7 0.6-1.1 0.7-0.4 1.6-0.4h8.2q2 0 2.2 1.5v57.4q0 2.4 1.3 3.8 1.2 1.4 3.4 1.4h23.5q0.9 0.1 1.5 0.5 0.7 0.5 0.7 1.1v0.9q0 1.6-2.2 1.6h-38.6q-2.2 0-2.2-1.6z"/>
				<path id="&lt;Compound Path&gt;" class="s2" d="m821.9 123q0-1.6 2.2-1.6h0.8q2.1 0 2.1 1.6v43.5q0 5.9-1.6 10.4-1.7 4.4-4.7 7.4-3 3-7.1 4.6-4.1 1.5-8.9 1.5-5.5 0-10.3-1.5-4.8-1.6-8.3-4.6-3.5-3-5.4-7.4-2-4.5-2-10.4v-43.5q0-1.6 2.2-1.6h8.3q2.1 0 2.1 1.6v43.5q0 5.3 1.1 8.9 1 3.7 2.8 5.9 1.8 2.3 4.2 3.4 2.5 1 5.3 1 3.3 0 6.4-1 3.1-1.1 5.5-3.4 2.4-2.2 3.9-5.9 1.4-3.6 1.4-8.9z"/>
				<path id="&lt;Compound Path&gt;" class="s2" d="m854.6 129.5q0-1.8-1-2.9-1.1-1.1-2.6-1.2h-13.4q-2.2 0-2.2-1.5v-1q0-1.5 2.2-1.5h46.7q2.1 0 2.1 1.5v1q0 1.5-2.1 1.5h-13.5q-1.6 0-2.6 1.1-1 1.2-1 3v58.5q0 1.6-2.2 1.6h-8.2q-2.2 0-2.2-1.6z"/>
				<path id="&lt;Compound Path&gt;" class="s2" d="m896.4 123q0-1.6 2.2-1.6h8.3q2.1 0 2.1 1.6v65q0 1.6-2.1 1.6h-8.3q-2.2 0-2.2-1.6z"/>
				<path id="&lt;Compound Path&gt;" fill-rule="evenodd" class="s2" d="m954.3 190.4q-6.8 0-12.7-2.6-5.9-2.5-10.2-7.2-4.3-4.7-6.7-11.1-2.4-6.4-2.4-14.1 0-7.7 2.4-14.1 2.4-6.3 6.7-11 4.3-4.6 10.2-7.2 5.9-2.5 12.7-2.5 6.9 0 12.8 2.5 5.8 2.6 10.1 7.2 4.2 4.7 6.7 11 2.4 6.4 2.4 14.1 0 7.7-2.4 14.1-2.5 6.4-6.7 11.1-4.3 4.7-10.1 7.2-5.9 2.6-12.8 2.6zm0-65.8q-3.8 0-7.2 2.1-3.3 2.1-5.9 6-2.6 3.9-4.1 9.6-1.5 5.7-1.5 13 0 7.2 1.5 13 1.5 5.8 4.1 9.7 2.6 4 5.9 6.1 3.4 2.1 7.2 2.1 3.8 0 7.2-2.1 3.4-2.1 5.9-6.1 2.5-3.9 4-9.7 1.4-5.8 1.4-13 0-7.3-1.4-13-1.5-5.7-4-9.6-2.5-3.9-5.9-6-3.4-2.1-7.2-2.1z"/>
				<path id="&lt;Compound Path&gt;" class="s2" d="m1045.3 123q0-1.6 2.2-1.6h0.9q2.2 0 2.2 1.6v65q0 1.6-2.2 1.6h-0.9q-0.7 0-1.3-0.3-0.5-0.2-0.7-0.4l-38.3-43.5q-1.3-1.5-2.2-1.5-1.4 0-1.4 2.9v41.2q0 1.6-2.1 1.6h-0.9q-2.2 0-2.2-1.6v-65q0-1.6 2.2-1.6h0.9q1.3 0 2 0.7l38.3 43.5q1.2 1.5 2.2 1.5 1.3 0 1.3-2.8z"/>
				<path id="&lt;Compound Path&gt;" class="s2" d="m1061.7 180.5q0.6-0.7 1.8-0.7 1.3 0 1.9 0.6 2.7 2.6 6.2 4.2 3.5 1.6 7.4 1.6 6.2 0 9.7-3.1 3.5-3.2 3.5-8.4 0-1.7-0.4-3.2-0.4-1.5-1.5-2.8-1.1-1.4-2.9-2.8-1.9-1.4-4.7-3.1l-5.2-2.9q-4.8-2.8-7.9-5.4-3-2.6-4.8-5.2-1.8-2.6-2.5-5.3-0.7-2.7-0.7-5.8 0-4.4 1.8-7.7 1.9-3.3 5-5.5 3.1-2.2 7-3.3 3.9-1.1 8.2-1.1 5.2 0 9.2 1.3 4 1.4 8.6 5.7 0.7 0.6 0.7 1.2 0 0.5-0.7 1.2l0.1-0.2q-0.8 1-1.5 1.6-0.8 0.6-2.3 0.6-2 0-3.4-1.6-2.7-3.5-5.1-4.6-2.5-1.2-4.7-1.2-4.9 0-8.2 3.2-3.3 3.1-3.3 7.9 0 2.4 0.5 4.2 0.5 1.7 1.7 3.2 1.2 1.4 3.1 2.9 1.9 1.4 4.8 3l4.9 2.9q4.3 2.6 7.3 4.7 3.1 2.2 5 4.5 2 2.3 2.9 4.9 0.8 2.6 0.8 6 0 4.1-1.9 7.5-1.9 3.5-5.1 5.9-3.2 2.4-7.4 3.7-4.2 1.3-8.9 1.3-4 0-7-0.7-3.1-0.7-5.4-1.8-2.4-1-4-2.3-1.6-1.3-2.8-2.5-0.7-0.7-0.7-1.2 0-0.6 0.7-1.2z"/>
			</g>
		</g>
	</g>
</svg>