<svg version="1.2" xmlns="http://www.w3.org/2000/svg" viewBox="0 0 1300 357" width="1300" height="357"><style>.a{fill:#c51e43}.b{fill:#d1d2d3}.c{fill:#fff}.d{fill:#f8f8f8}</style><path fill-rule="evenodd" class="a" d="m332.9 180.3c3.6 58.5-38.3 116.3-91.5 137.6-53.9 21.5-116.8 10.3-159.2-29.5-43.6-41-57.7-105.5-36.5-161.2 21-55 74-92.3 132.6-95.2 67.9-3.1 132.1 42.7 149.5 108.7 3.4 13 5.8 26.1 5.1 39.6zm-148.6-109.7c-2.9-0.2-7.1 0.3-11.3 0.7-51.5 4.1-92.9 48-97.9 98.6-4.4 44.2 19.8 88.6 59.6 108.7 41 20.7 92.2 13.4 125.6-18.1 32.9-31 43.7-82.2 25.3-123.4-17.8-40.2-57-66.6-101.3-66.5z"/><g style="opacity:.1"><path class="b" d="m315.6 116.4c-40.2-65.5-119.9-80.9-178.1-52-58.4 29-88.4 94.7-71.7 158 9.2 34.8 29.5 62.1 60 81.2 30.5 19.1 63.6 24.5 99.6 18-12.3 5.8-44.3 9.9-70.3 4.6-23.4-4.7-44.7-14-63.6-28.7-50.7-39.3-70.2-106.3-48.6-167.3 21.1-60.2 79.1-100 144.3-98.2 63.3 1.7 110.2 42.7 128.4 84.4z"/><path class="b" d="m236.5 68.2c59.4 25.8 81.9 90.6 64.7 142.7-17.2 52.2-68.4 85.1-123.2 78.8-30.1-3.5-55.2-17.2-74.8-40.4-19.5-23.2-28-50.3-27-81.1-3.3 11-2.9 38.2 4.5 59.3 6.8 19.1 17.1 35.7 31.6 49.7 38.9 37.7 97 45.9 145.4 20.7 47.6-24.9 73.8-78.2 64.5-132.5-9-52.6-48.8-87-85.7-97.2z"/></g><path class="a" d="m114.5 240.8q-0.5-0.7-0.5-1.5v-113.7q0-0.9 0.5-1.5 0.7-0.6 1.5-0.6h23.9q0.8 0 1.4 0.6 0.6 0.6 0.6 1.5v113.7q0 0.8-0.6 1.5-0.6 0.6-1.4 0.6h-23.9q-0.8 0-1.5-0.6z"/><path class="a" d="m225.8 124.1q0.6-0.6 1.5-0.6h23.9q0.8 0 1.5 0.6 0.5 0.6 0.5 1.5v113.7q0 0.8-0.5 1.5-0.7 0.6-1.5 0.6h-22.8q-1.8 0-2.4-1.4l-38.7-64.3q-0.3-0.5-0.7-0.4-0.3 0.1-0.3 0.8l0.1 63.2q0 0.8-0.6 1.5-0.5 0.6-1.3 0.6h-23.9q-0.9 0-1.5-0.6-0.6-0.7-0.6-1.5v-113.7q0-0.9 0.6-1.5 0.6-0.6 1.5-0.6h22.9q1.8 0 2.4 1.4l38.6 64.2q0.3 0.4 0.6 0.3 0.4-0.1 0.4-0.7l-0.2-63.1q0-0.9 0.5-1.5z"/><path class="c" d="m374.3 146.4q0-1.2 0.9-1.9 0.8-0.6 2.2-0.6h8.2q3.3 0 3.1 2.5v27.9q0 2.1 1.2 3.4 1.1 1.3 2.9 1.3h22.8q1.7 0 2.8-1.3 1.2-1.3 1.2-3.4v-27.9q0-2.5 3.2-2.5h8q3.2 0 3.2 2.5v73.3q0 2.5-3.2 2.5h-8.7q-2.5 0-2.5-1.8v-31.9q0-2.1-1.2-3.5-1.1-1.3-2.8-1.3h-22.8q-1.8 0-2.9 1.3-1.2 1.4-1.2 3.5v31.2q0.2 2.5-3.1 2.5h-8.2q-3.1 0-3.1-2.5z"/><path fill-rule="evenodd" class="c" d="m486.1 223.2q-7.9 0-14.7-3-6.8-2.9-11.7-8.3-4.9-5.4-7.6-12.7-2.7-7.4-2.7-16.2 0-8.9 2.7-16.2 2.7-7.2 7.6-12.6 4.9-5.3 11.7-8.3 6.8-2.9 14.7-2.9 7.8 0 14.5 2.9 6.8 3 11.6 8.3 4.9 5.4 7.7 12.6 2.9 7.3 2.9 16.2 0 8.8-2.9 16.2-2.8 7.3-7.7 12.7-4.8 5.4-11.6 8.3-6.7 3-14.5 3zm0-75.6q-4.4 0-8.3 2.4-3.9 2.4-6.9 6.9-2.8 4.5-4.6 11-1.8 6.6-1.8 15 0 8.2 1.8 14.9 1.8 6.6 4.6 11.1 3 4.6 6.9 7 3.9 2.4 8.3 2.4 4.3 0 8.2-2.4 3.8-2.4 6.7-7 2.8-4.5 4.6-11.1 1.7-6.7 1.7-14.9 0-8.4-1.7-15-1.8-6.5-4.6-11-2.9-4.5-6.7-6.9-3.9-2.4-8.2-2.4z"/><path class="c" d="m538 145.7q0-0.8 0.7-1.3 0.8-0.5 1.7-0.5h9.5q2.3 0 2.5 1.8v65.9q0 2.7 1.4 4.3 1.5 1.6 4 1.6h27q1 0.1 1.7 0.6 0.8 0.6 0.8 1.3v1q0 1.8-2.5 1.8h-44.4q-2.4 0-2.4-1.8z"/><path class="c" d="m599.2 145.8q0-1.9 2.5-1.9h43.8q2.6 0 2.6 1.9v0.8q0 1.9-2.6 1.9h-27.7q-1.8 0-3 1.4-1.1 1.4-1 3.5v20.9q-0.1 2.1 1 3.4 1.2 1.3 3 1.3h21.5q2.4 0 2.4 1.9v1q0 1.8-2.4 1.8h-21.5q-1.8 0-3 1.3-1.1 1.4-1 3.5v24.2q-0.1 2.2 1 3.5 1.2 1.3 3 1.3h29q2.5 0 2.5 1.9v1q0 1.8-2.5 1.8h-45.1q-2.5 0-2.5-1.8z"/><path class="c" d="m688.9 211.8q0.8-0.8 2-0.8 1.6 0 2.2 0.7 3.1 3 7.1 4.8 4 1.8 8.5 1.8 7.1 0 11.1-3.5 4-3.7 4-9.7 0-1.9-0.4-3.6-0.5-1.8-1.8-3.3-1.2-1.6-3.3-3.2-2.2-1.6-5.4-3.5l-5.9-3.4q-5.5-3.2-9.1-6.2-3.4-2.9-5.5-5.9-2-3-2.8-6.1-0.9-3.1-0.9-6.7 0-5 2.1-8.8 2.2-3.8 5.7-6.3 3.6-2.5 8.1-3.8 4.4-1.3 9.4-1.3 5.9 0 10.5 1.5 4.7 1.6 9.9 6.6 0.8 0.7 0.8 1.3 0 0.6-0.8 1.4l0.1-0.2q-0.9 1.1-1.7 1.8-0.8 0.7-2.7 0.7-2.3 0-3.8-1.8-3.2-4-5.9-5.3-2.9-1.4-5.3-1.4-5.6 0-9.5 3.7-3.8 3.6-3.8 9.1 0 2.7 0.6 4.8 0.6 1.9 1.9 3.7 1.4 1.6 3.6 3.3 2.2 1.6 5.5 3.4l5.6 3.4q4.9 2.9 8.4 5.4 3.5 2.5 5.8 5.1 2.2 2.7 3.2 5.6 1.1 3 1.1 6.9 0 4.7-2.3 8.6-2.2 4.1-5.9 6.8-3.6 2.8-8.5 4.3-4.8 1.5-10 1.5-4.7 0-8.2-0.8-3.5-0.9-6.2-2.1-2.7-1.2-4.6-2.7-1.8-1.4-3.2-2.8-0.8-0.8-0.8-1.4 0-0.7 0.8-1.4z"/><path fill-rule="evenodd" class="c" d="m784.5 223.2q-7.9 0-14.6-3-6.8-2.9-11.7-8.3-4.9-5.4-7.7-12.7-2.7-7.4-2.7-16.2 0-8.9 2.7-16.2 2.8-7.2 7.7-12.6 4.9-5.3 11.7-8.3 6.7-2.9 14.6-2.9 7.9 0 14.5 2.9 6.8 3 11.7 8.3 4.8 5.4 7.7 12.6 2.8 7.3 2.8 16.2 0 8.8-2.8 16.2-2.9 7.3-7.7 12.7-4.9 5.4-11.7 8.3-6.6 3-14.5 3zm0-75.6q-4.4 0-8.3 2.4-3.9 2.4-6.7 6.9-3 4.5-4.7 11-1.8 6.6-1.8 15 0 8.2 1.8 14.9 1.7 6.6 4.7 11.1 2.8 4.6 6.7 7 3.9 2.4 8.3 2.4 4.3 0 8.2-2.4 3.9-2.4 6.8-7 2.9-4.5 4.5-11.1 1.7-6.7 1.7-14.9 0-8.4-1.7-15-1.6-6.5-4.5-11-2.9-4.5-6.8-6.9-3.9-2.4-8.2-2.4z"/><path class="c" d="m836.4 145.7q0-0.8 0.7-1.3 0.8-0.5 1.8-0.5h9.4q2.3 0 2.5 1.8v65.9q0 2.7 1.5 4.3 1.4 1.6 3.9 1.6h27q1 0.1 1.7 0.6 0.8 0.6 0.8 1.3v1q0 1.8-2.5 1.8h-44.3q-2.5 0-2.5-1.8z"/><path class="c" d="m942.2 145.8q0-1.9 2.5-1.9h1q2.4 0 2.4 1.9v49.9q0 6.8-1.9 12-1.9 5-5.4 8.5-3.4 3.4-8.1 5.2-4.7 1.8-10.2 1.8-6.3 0-11.8-1.8-5.5-1.8-9.5-5.2-4-3.5-6.2-8.5-2.3-5.2-2.3-12v-49.9q0-1.9 2.5-1.9h9.5q2.4 0 2.4 1.9v49.9q0 6.1 1.3 10.2 1.1 4.3 3.2 6.8 2.1 2.6 4.8 3.9 2.9 1.2 6.1 1.2 3.8 0 7.3-1.2 3.6-1.3 6.3-3.9 2.8-2.5 4.5-6.8 1.6-4.1 1.6-10.2z"/><path class="c" d="m979.7 153.2q0-2-1.1-3.3-1.3-1.2-3-1.4h-15.4q-2.5 0-2.5-1.7v-1.1q0-1.8 2.5-1.8h53.5q2.5 0 2.5 1.8v1.1q0 1.7-2.5 1.7h-15.4q-1.9 0-3 1.3-1.2 1.4-1.2 3.4v67.2q0 1.8-2.5 1.8h-9.4q-2.5 0-2.5-1.8z"/><path class="c" d="m1027.6 145.8q0-1.9 2.5-1.9h9.6q2.4 0 2.4 1.9v74.6q0 1.8-2.4 1.8h-9.6q-2.5 0-2.5-1.8z"/><path fill-rule="evenodd" class="c" d="m1094 223.2q-7.8 0-14.6-3-6.7-2.9-11.7-8.3-4.9-5.4-7.6-12.7-2.8-7.4-2.8-16.2 0-8.9 2.8-16.2 2.7-7.2 7.6-12.6 5-5.3 11.7-8.3 6.8-2.9 14.6-2.9 7.9 0 14.7 2.9 6.6 3 11.5 8.3 4.9 5.4 7.7 12.6 2.8 7.3 2.8 16.2 0 8.8-2.8 16.2-2.8 7.3-7.7 12.7-4.9 5.4-11.5 8.3-6.8 3-14.7 3zm0-75.6q-4.4 0-8.3 2.4-3.7 2.4-6.7 6.9-3 4.5-4.7 11-1.7 6.6-1.7 15 0 8.2 1.7 14.9 1.7 6.6 4.7 11.1 3 4.6 6.7 7 3.9 2.4 8.3 2.4 4.4 0 8.2-2.4 3.9-2.4 6.8-7 2.9-4.5 4.6-11.1 1.6-6.7 1.6-14.9 0-8.4-1.6-15-1.7-6.5-4.6-11-2.9-4.5-6.8-6.9-3.8-2.4-8.2-2.4z"/><path class="c" d="m1198.3 145.8q0-1.9 2.5-1.9h1.1q2.5 0 2.5 1.9v74.6q0 1.8-2.5 1.8h-1.1q-0.8 0-1.5-0.3-0.5-0.2-0.8-0.5l-43.9-49.9q-1.5-1.7-2.5-1.7-1.6 0-1.6 3.3v47.3q0 1.8-2.4 1.8h-1q-2.5 0-2.5-1.8v-74.6q0-1.9 2.5-1.9h1q1.5 0 2.3 0.9l43.9 49.9q1.4 1.7 2.5 1.7 1.5 0 1.5-3.2z"/><path class="d" d="m1217.1 211.8q0.7-0.8 2.1-0.8 1.5 0 2.2 0.7 3.1 3 7.1 4.8 4 1.8 8.4 1.8 7.2 0 11.2-3.5 4-3.7 4-9.7 0-1.9-0.5-3.6-0.4-1.8-1.7-3.3-1.3-1.6-3.3-3.2-2.2-1.6-5.4-3.5l-6-3.4q-5.5-3.2-9-6.2-3.5-2.9-5.5-5.9-2.1-3-2.9-6.1-0.8-3.1-0.8-6.7 0-5 2.1-8.8 2.1-3.8 5.7-6.3 3.6-2.5 8-3.8 4.5-1.3 9.4-1.3 6 0 10.6 1.5 4.6 1.6 9.8 6.6 0.8 0.7 0.8 1.3 0 0.6-0.8 1.4l0.1-0.2q-0.9 1.1-1.7 1.8-0.9 0.7-2.6 0.7-2.3 0-3.9-1.8-3.1-4-5.9-5.3-2.8-1.4-5.3-1.4-5.7 0-9.4 3.7-3.8 3.6-3.8 9.1 0 2.7 0.5 4.8 0.6 1.9 2 3.7 1.4 1.6 3.5 3.3 2.2 1.6 5.5 3.4l5.7 3.4q4.9 2.9 8.3 5.4 3.6 2.5 5.8 5.1 2.3 2.7 3.3 5.6 0.9 3 0.9 6.9 0 4.7-2.2 8.6-2.1 4.1-5.8 6.8-3.7 2.8-8.5 4.3-4.8 1.5-10.2 1.5-4.6 0-8-0.8-3.6-0.9-6.2-2.1-2.8-1.2-4.6-2.7-1.8-1.4-3.2-2.8-0.8-0.8-0.8-1.4 0-0.7 0.8-1.4z"/></svg>