<svg version="1.2" xmlns="http://www.w3.org/2000/svg" viewBox="0 0 1400 384" width="1400" height="384"><style>.a{fill:#c51e43}.b{fill:#d1d2d3}.c{fill:#6c6e70}</style><path fill-rule="evenodd" class="a" d="m358.5 194c3.8 62.8-41.2 125.1-98.5 147.9-58 23.2-125.8 11.1-171.5-31.7-46.9-44.1-62.1-113.5-39.2-173.4 22.6-59.1 79.6-99.3 142.7-102.4 73.2-3.3 142.3 46 161 117 3.7 13.9 6.3 28 5.5 42.6zm-160-118.1c-3.2-0.2-7.6 0.4-12.2 0.8-55.4 4.4-100 51.6-105.4 106-4.7 47.6 21.3 95.4 64.2 117 44.2 22.2 99.2 14.4 135.3-19.5 35.4-33.4 47-88.4 27.1-132.8-19.1-43.2-61.3-71.6-109-71.5z"/><g style="opacity:.1"><path class="b" d="m339.9 125.2c-43.4-70.5-129.2-87-191.9-55.9-62.8 31.2-95.2 101.8-77.1 169.9 9.8 37.5 31.7 66.8 64.5 87.4 32.9 20.5 68.6 26.3 107.3 19.4-13.2 6.1-47.6 10.6-75.7 4.9-25.1-5.1-48.1-15.1-68.5-30.9-54.5-42.3-75.5-114.3-52.3-180 22.7-64.7 85.2-107.5 155.4-105.6 68.2 1.9 118.6 46 138.3 90.8z"/><path class="b" d="m254.7 73.3c63.9 27.8 88.1 97.5 69.6 153.5-18.5 56.2-73.6 91.6-132.6 84.8-32.4-3.8-59.5-18.5-80.6-43.4-21-25-30.1-54.1-29-87.3-3.6 11.8-3.2 41.1 4.8 63.8 7.3 20.5 18.4 38.4 34.1 53.5 41.8 40.5 104.4 49.4 156.5 22.2 51.3-26.8 79.5-84.1 69.5-142.5-9.7-56.5-52.6-93.6-92.3-104.6z"/></g><path class="a" d="m123.3 259q-0.6-0.7-0.6-1.6v-122.3q0-1 0.6-1.6 0.8-0.6 1.6-0.6h25.7q0.9 0 1.6 0.6 0.6 0.6 0.6 1.6v122.3q0 0.9-0.6 1.6-0.7 0.7-1.6 0.7h-25.7q-0.8 0-1.6-0.7z"/><path class="a" d="m243.2 133.5q0.6-0.6 1.6-0.6h25.7q0.9 0 1.6 0.6 0.6 0.6 0.6 1.6v122.3q0 0.9-0.6 1.6-0.7 0.7-1.6 0.7h-24.6q-1.8 0-2.6-1.5l-41.6-69.2q-0.3-0.6-0.7-0.5-0.4 0.2-0.4 0.9l0.1 68q0 0.9-0.6 1.6-0.6 0.7-1.5 0.7h-25.6q-1 0-1.6-0.7-0.7-0.7-0.7-1.6v-122.3q0-1 0.7-1.6 0.6-0.6 1.6-0.6h24.7q1.8 0 2.5 1.4l41.5 69.1q0.4 0.5 0.8 0.3 0.3-0.1 0.3-0.7l-0.2-67.9q0-1 0.6-1.6z"/><path class="c" d="m403.1 157.4q0-1.2 1-1.9 0.8-0.7 2.3-0.7h8.9q3.5 0 3.3 2.6v30q0 2.4 1.3 3.7 1.2 1.4 3.1 1.4h24.5q1.9 0 3.1-1.4 1.3-1.3 1.3-3.7v-30q0-2.6 3.4-2.6h8.7q3.4 0 3.4 2.6v78.9q0 2.7-3.4 2.7h-9.4q-2.7 0-2.7-1.9v-34.4q0-2.2-1.3-3.7-1.2-1.4-3.1-1.4h-24.5q-1.9 0-3.1 1.4-1.3 1.5-1.3 3.7v33.6q0.2 2.7-3.3 2.7h-8.9q-3.3 0-3.3-2.7z"/><path fill-rule="evenodd" class="c" d="m523.5 240q-8.6 0-15.8-3.2-7.3-3.1-12.6-8.9-5.3-5.8-8.2-13.7-2.9-7.9-2.9-17.4 0-9.5 2.9-17.4 2.9-7.8 8.2-13.6 5.3-5.7 12.6-8.9 7.2-3.1 15.8-3.1 8.4 0 15.6 3.1 7.3 3.2 12.5 8.9 5.3 5.8 8.3 13.6 3.1 7.9 3.1 17.4 0 9.5-3.1 17.4-3 7.9-8.3 13.7-5.2 5.8-12.5 8.9-7.2 3.2-15.6 3.2zm0-81.2q-4.7 0-8.9 2.6-4.2 2.6-7.4 7.4-3.1 4.8-5 11.8-2 7.1-2 16.1 0 8.9 2 16 1.9 7.2 5 12 3.2 5 7.4 7.6 4.2 2.5 8.9 2.5 4.6 0 8.8-2.5 4.1-2.6 7.2-7.6 3.1-4.8 4.9-12 1.9-7.1 1.9-16 0-9-1.9-16.1-1.8-7-4.9-11.8-3.1-4.8-7.2-7.4-4.2-2.6-8.8-2.6z"/><path class="c" d="m579.4 156.7q0-0.9 0.7-1.4 0.9-0.5 1.9-0.5h10.2q2.5 0 2.7 1.9v70.9q0 2.9 1.5 4.7 1.6 1.7 4.3 1.7h29.1q1.1 0.1 1.8 0.6 0.9 0.6 0.9 1.4v1.1q0 1.9-2.7 1.9h-47.8q-2.6 0-2.6-1.9z"/><path class="c" d="m645.3 156.8q0-2 2.7-2h47.2q2.7 0 2.7 2v0.9q0 2.1-2.7 2.1h-29.9q-2 0-3.2 1.5-1.2 1.4-1.1 3.7v22.4q-0.1 2.4 1.1 3.7 1.2 1.4 3.2 1.4h23.2q2.6 0 2.6 2.1v1.1q0 1.9-2.6 1.9h-23.2q-2 0-3.2 1.4-1.2 1.5-1.1 3.7v26.1q-0.1 2.3 1.1 3.7 1.2 1.5 3.2 1.5h31.2q2.8 0 2.8 2v1.1q0 1.9-2.8 1.9h-48.5q-2.7 0-2.7-1.9z"/><path class="c" d="m741.9 227.8q0.8-0.9 2.2-0.9 1.7 0 2.3 0.8 3.4 3.2 7.7 5.2 4.3 1.9 9.1 1.9 7.7 0 12-3.8 4.3-3.9 4.3-10.4 0-2.1-0.5-3.9-0.5-1.9-1.8-3.5-1.4-1.7-3.6-3.4-2.4-1.7-5.8-3.8l-6.4-3.6q-6-3.5-9.8-6.7-3.7-3.2-5.9-6.4-2.2-3.2-3.1-6.6-0.9-3.3-0.9-7.1 0-5.5 2.3-9.5 2.3-4.1 6.1-6.8 3.9-2.7 8.7-4.1 4.8-1.4 10.1-1.4 6.4 0 11.3 1.7 5.1 1.7 10.7 7 0.8 0.7 0.8 1.5 0 0.6-0.8 1.5l0.1-0.3q-1 1.2-1.9 2-0.8 0.7-2.8 0.7-2.5 0-4.1-2-3.4-4.3-6.4-5.6-3.1-1.5-5.7-1.5-6 0-10.2 3.9-4.1 3.9-4.1 9.8 0 3 0.6 5.2 0.6 2.1 2.1 3.9 1.5 1.8 3.8 3.6 2.4 1.7 6 3.7l6 3.6q5.3 3.2 9 5.8 3.9 2.7 6.3 5.6 2.4 2.8 3.5 6 1.1 3.2 1.1 7.4 0 5.1-2.5 9.3-2.3 4.3-6.3 7.3-3.9 2.9-9.1 4.5-5.2 1.6-10.9 1.6-5 0-8.7-0.8-3.9-0.9-6.7-2.3-3-1.2-4.9-2.8-2-1.6-3.5-3.1-0.9-0.8-0.9-1.5 0-0.7 0.9-1.4z"/><path fill-rule="evenodd" class="c" d="m844.8 240q-8.5 0-15.7-3.2-7.2-3.1-12.6-8.9-5.3-5.8-8.2-13.7-3-7.9-3-17.4 0-9.5 3-17.4 2.9-7.8 8.2-13.6 5.4-5.7 12.6-8.9 7.2-3.1 15.7-3.1 8.5 0 15.7 3.1 7.3 3.2 12.6 8.9 5.2 5.8 8.3 13.6 2.9 7.9 2.9 17.4 0 9.5-2.9 17.4-3.1 7.9-8.3 13.7-5.3 5.8-12.6 8.9-7.2 3.2-15.7 3.2zm0-81.2q-4.7 0-8.9 2.6-4.2 2.6-7.3 7.4-3.2 4.8-5 11.8-1.9 7.1-1.9 16.1 0 8.9 1.9 16 1.8 7.2 5 12 3.1 5 7.3 7.6 4.2 2.5 8.9 2.5 4.7 0 8.9-2.5 4.2-2.6 7.3-7.6 3.1-4.8 4.8-12 1.9-7.1 1.9-16 0-9-1.9-16.1-1.7-7-4.8-11.8-3.1-4.8-7.3-7.4-4.2-2.6-8.9-2.6z"/><path class="c" d="m900.7 156.7q0-0.9 0.8-1.4 0.8-0.5 2-0.5h10.1q2.4 0 2.7 1.9v70.9q0 2.9 1.6 4.7 1.5 1.7 4.2 1.7h29q1.1 0.1 1.9 0.6 0.8 0.6 0.8 1.4v1.1q0 1.9-2.7 1.9h-47.6q-2.8 0-2.8-1.9z"/><path class="c" d="m1014.7 156.8q0-2 2.7-2h1q2.6 0 2.6 2v53.7q0 7.3-2 12.9-2.1 5.4-5.8 9.1-3.7 3.7-8.8 5.7-5 1.8-10.9 1.8-6.8 0-12.8-1.8-5.9-2-10.2-5.7-4.3-3.7-6.7-9.1-2.4-5.6-2.4-12.9v-53.7q0-2 2.7-2h10.2q2.6 0 2.6 2v53.7q0 6.6 1.4 11 1.2 4.6 3.4 7.3 2.3 2.8 5.2 4.2 3.1 1.2 6.6 1.2 4 0 7.9-1.2 3.8-1.4 6.7-4.2 3-2.7 4.9-7.3 1.7-4.4 1.7-11z"/><path class="c" d="m1055.1 164.8q0-2.2-1.3-3.5-1.3-1.4-3.2-1.5h-16.5q-2.7 0-2.7-1.9v-1.2q0-1.9 2.7-1.9h57.6q2.6 0 2.6 1.9v1.2q0 1.9-2.6 1.9h-16.6q-2 0-3.2 1.3-1.3 1.5-1.3 3.7v72.3q0 1.9-2.7 1.9h-10.1q-2.7 0-2.7-1.9z"/><path class="c" d="m1106.7 156.8q0-2 2.7-2h10.2q2.6 0 2.6 2v80.3q0 1.9-2.6 1.9h-10.2q-2.7 0-2.7-1.9z"/><path fill-rule="evenodd" class="c" d="m1178.1 240q-8.3 0-15.6-3.2-7.3-3.1-12.6-8.9-5.3-5.8-8.3-13.7-3-7.9-3-17.4 0-9.5 3-17.4 3-7.8 8.3-13.6 5.3-5.7 12.6-8.9 7.3-3.1 15.6-3.1 8.6 0 15.9 3.1 7.1 3.2 12.4 8.9 5.2 5.8 8.3 13.6 3 7.9 3 17.4 0 9.5-3 17.4-3.1 7.9-8.3 13.7-5.3 5.8-12.4 8.9-7.3 3.2-15.9 3.2zm0-81.2q-4.6 0-8.8 2.6-4.1 2.6-7.3 7.4-3.2 4.8-5.1 11.8-1.8 7.1-1.8 16.1 0 8.9 1.8 16 1.9 7.2 5.1 12 3.2 5 7.3 7.6 4.2 2.5 8.8 2.5 4.7 0 8.9-2.5 4.2-2.6 7.3-7.6 3.1-4.8 5-12 1.7-7.1 1.7-16 0-9-1.7-16.1-1.9-7-5-11.8-3.1-4.8-7.3-7.4-4.2-2.6-8.9-2.6z"/><path class="c" d="m1290.5 156.8q0-2 2.7-2h1.1q2.7 0 2.7 2v80.3q0 1.9-2.7 1.9h-1.1q-0.9 0-1.6-0.3-0.6-0.3-0.9-0.5l-47.2-53.7q-1.6-1.9-2.8-1.9-1.7 0-1.7 3.6v50.9q0 1.9-2.6 1.9h-1.1q-2.7 0-2.7-1.9v-80.3q0-2 2.7-2h1.1q1.6 0 2.5 0.9l47.3 53.7q1.5 1.9 2.7 1.9 1.6 0 1.6-3.5z"/><path class="c" d="m1310.7 227.8q0.8-0.9 2.3-0.9 1.6 0 2.3 0.8 3.3 3.2 7.7 5.2 4.3 1.9 9.1 1.9 7.7 0 12-3.8 4.3-3.9 4.3-10.4 0-2.1-0.5-3.9-0.5-1.9-1.9-3.5-1.3-1.7-3.5-3.4-2.4-1.7-5.8-3.8l-6.5-3.6q-5.9-3.5-9.7-6.7-3.7-3.2-5.9-6.4-2.3-3.2-3.1-6.6-0.9-3.3-0.9-7.1 0-5.5 2.2-9.5 2.4-4.1 6.2-6.8 3.8-2.7 8.7-4.1 4.8-1.4 10.1-1.4 6.4 0 11.3 1.7 5 1.7 10.7 7 0.8 0.7 0.8 1.5 0 0.6-0.8 1.5l0.1-0.3q-1 1.2-1.9 2-1 0.7-2.8 0.7-2.5 0-4.2-2-3.3-4.3-6.3-5.6-3.1-1.5-5.8-1.5-6.1 0-10.1 3.9-4.1 3.9-4.1 9.8 0 3 0.6 5.2 0.6 2.1 2.1 3.9 1.5 1.8 3.8 3.6 2.4 1.7 6 3.7l6 3.6q5.3 3.2 9 5.8 3.8 2.7 6.2 5.6 2.5 2.8 3.6 6 1 3.2 1 7.4 0 5.1-2.4 9.3-2.3 4.3-6.3 7.3-3.9 2.9-9.1 4.5-5.2 1.6-11 1.6-4.9 0-8.6-0.8-3.9-0.9-6.7-2.3-3-1.2-4.9-2.8-2-1.6-3.5-3.1-0.9-0.8-0.9-1.5 0-0.7 0.9-1.4z"/></svg>